<svg xmlns="http://www.w3.org/2000/svg" viewBox="0 0 600 600" width="600" height="600">
<rect width="600" height="600" fill="#b8312f"/>
<circle cx="470" cy="140" r="210" fill="#161412" opacity="0.14"/><circle cx="470" cy="140" r="120" fill="#161412" opacity="0.18"/>
<rect x="0" y="360" width="600" height="2" fill="#161412" opacity="0.12"/><rect x="0" y="374" width="600" height="2" fill="#161412" opacity="0.12"/><rect x="0" y="388" width="600" height="2" fill="#161412" opacity="0.12"/><rect x="0" y="402" width="600" height="2" fill="#161412" opacity="0.12"/><rect x="0" y="416" width="600" height="2" fill="#161412" opacity="0.12"/><rect x="0" y="430" width="600" height="2" fill="#161412" opacity="0.12"/><rect x="0" y="444" width="600" height="2" fill="#161412" opacity="0.12"/><rect x="0" y="458" width="600" height="2" fill="#161412" opacity="0.12"/><rect x="0" y="472" width="600" height="2" fill="#161412" opacity="0.12"/><rect x="0" y="486" width="600" height="2" fill="#161412" opacity="0.12"/><rect x="0" y="500" width="600" height="2" fill="#161412" opacity="0.12"/><rect x="0" y="514" width="600" height="2" fill="#161412" opacity="0.12"/><rect x="0" y="528" width="600" height="2" fill="#161412" opacity="0.12"/><rect x="0" y="542" width="600" height="2" fill="#161412" opacity="0.12"/><rect x="0" y="556" width="600" height="2" fill="#161412" opacity="0.12"/><rect x="0" y="570" width="600" height="2" fill="#161412" opacity="0.12"/><rect x="0" y="584" width="600" height="2" fill="#161412" opacity="0.12"/><rect x="0" y="598" width="600" height="2" fill="#161412" opacity="0.12"/>
<text x="44" y="300" font-family="Impact, 'Arial Black', sans-serif" font-size="104" fill="#161412">RÉCITAL</text>
<text x="44" y="400" font-family="Impact, 'Arial Black', sans-serif" font-size="104" fill="#f2ebdf">D’HIVER</text>
<text x="46" y="548" font-family="Helvetica, Arial, sans-serif" font-size="22" fill="#161412" letter-spacing="6">CLÉMENCE AUBIER · VIOLON SEUL</text></svg>