<svg xmlns="http://www.w3.org/2000/svg" width="800" height="1000" viewBox="0 0 800 1000"><defs></defs><rect width="800" height="1000" fill="#16130f"/><rect x="60" y="60" width="680" height="880" fill="none" stroke="#c8a25c" stroke-width="3"/><rect x="80" y="80" width="640" height="840" fill="none" stroke="#c8a25c" stroke-width="1" opacity="0.6"/><text x="400" y="590" text-anchor="middle" font-family="Georgia, 'Times New Roman', serif" font-size="300" fill="#efe7d8">VL</text><line x1="300" y1="680" x2="500" y2="680" stroke="#c8a25c" stroke-width="3"/><text x="400" y="750" text-anchor="middle" font-family="Georgia, 'Times New Roman', serif" font-size="34" letter-spacing="8" fill="#efe7d8">VICTOR LANCTÔT</text><g fill="#efe7d8" opacity="0.06"><circle cx="85" cy="703" r="1.4"/><circle cx="752" cy="271" r="0.9"/><circle cx="587" cy="658" r="1.0"/><circle cx="547" cy="397" r="1.5"/><circle cx="95" cy="223" r="1.7"/><circle cx="286" cy="260" r="1.6"/><circle cx="505" cy="150" r="1.3"/><circle cx="531" cy="165" r="1.4"/><circle cx="98" cy="337" r="0.7"/><circle cx="164" cy="978" r="1.1"/><circle cx="792" cy="439" r="1.3"/><circle cx="698" cy="687" r="0.7"/><circle cx="471" cy="634" r="0.8"/><circle cx="76" cy="875" r="1.2"/><circle cx="155" cy="453" r="0.9"/><circle cx="639" cy="500" r="0.7"/><circle cx="655" cy="90" r="0.9"/><circle cx="22" cy="740" r="0.7"/><circle cx="421" cy="93" r="1.2"/><circle cx="548" cy="535" r="1.1"/><circle cx="388" cy="437" r="1.3"/><circle cx="76" cy="475" r="0.9"/><circle cx="692" cy="939" r="0.7"/><circle cx="115" cy="703" r="1.3"/><circle cx="15" cy="705" r="1.7"/><circle cx="338" cy="347" r="1.3"/><circle cx="751" cy="264" r="1.0"/><circle cx="151" cy="628" r="1.2"/><circle cx="205" cy="388" r="0.6"/><circle cx="250" cy="983" r="1.3"/><circle cx="226" cy="936" r="1.0"/><circle cx="201" cy="35" r="0.8"/><circle cx="159" cy="230" r="1.6"/><circle cx="212" cy="249" r="1.3"/><circle cx="734" cy="291" r="1.5"/><circle cx="295" cy="561" r="1.3"/><circle cx="754" cy="757" r="1.2"/><circle cx="673" cy="366" r="1.1"/><circle cx="768" cy="546" r="1.5"/><circle cx="252" cy="915" r="1.3"/><circle cx="198" cy="934" r="1.2"/><circle cx="272" cy="263" r="0.7"/><circle cx="161" cy="692" r="0.8"/><circle cx="207" cy="447" r="1.3"/><circle cx="304" cy="785" r="0.9"/><circle cx="295" cy="425" r="0.8"/><circle cx="178" cy="146" r="1.5"/><circle cx="117" cy="668" r="0.9"/><circle cx="518" cy="657" r="1.0"/><circle cx="746" cy="657" r="1.3"/><circle cx="37" cy="407" r="0.9"/><circle cx="376" cy="933" r="1.6"/><circle cx="50" cy="680" r="1.7"/><circle cx="434" cy="97" r="1.6"/><circle cx="341" cy="981" r="1.6"/><circle cx="663" cy="931" r="0.7"/><circle cx="635" cy="305" r="0.8"/><circle cx="303" cy="589" r="0.6"/><circle cx="360" cy="784" r="1.2"/><circle cx="423" cy="296" r="1.8"/><circle cx="199" cy="681" r="1.4"/><circle cx="0" cy="996" r="0.9"/><circle cx="791" cy="928" r="1.7"/><circle cx="684" cy="398" r="1.1"/><circle cx="277" cy="936" r="0.6"/><circle cx="109" cy="956" r="1.6"/><circle cx="565" cy="968" r="1.2"/><circle cx="668" cy="443" r="1.7"/><circle cx="56" cy="438" r="1.3"/><circle cx="635" cy="423" r="1.4"/><circle cx="774" cy="419" r="0.8"/><circle cx="24" cy="862" r="1.2"/><circle cx="310" cy="520" r="0.7"/><circle cx="178" cy="236" r="0.9"/><circle cx="688" cy="247" r="0.7"/><circle cx="693" cy="558" r="0.6"/><circle cx="540" cy="686" r="1.4"/><circle cx="620" cy="424" r="0.9"/><circle cx="595" cy="625" r="1.4"/><circle cx="147" cy="373" r="1.4"/><circle cx="308" cy="602" r="1.2"/><circle cx="604" cy="348" r="1.2"/><circle cx="663" cy="311" r="0.8"/><circle cx="509" cy="133" r="1.6"/><circle cx="220" cy="904" r="1.2"/><circle cx="123" cy="521" r="1.4"/><circle cx="389" cy="635" r="1.0"/><circle cx="767" cy="174" r="1.6"/><circle cx="19" cy="507" r="0.7"/><circle cx="105" cy="588" r="1.7"/><circle cx="247" cy="403" r="1.2"/><circle cx="484" cy="350" r="1.0"/><circle cx="683" cy="556" r="1.0"/><circle cx="654" cy="999" r="1.1"/><circle cx="12" cy="305" r="1.7"/><circle cx="137" cy="199" r="1.6"/><circle cx="91" cy="849" r="0.9"/><circle cx="310" cy="594" r="0.7"/><circle cx="620" cy="438" r="1.5"/><circle cx="611" cy="77" r="1.6"/><circle cx="657" cy="242" r="1.3"/><circle cx="164" cy="539" r="1.5"/><circle cx="301" cy="533" r="0.8"/><circle cx="691" cy="626" r="1.6"/><circle cx="65" cy="745" r="0.7"/><circle cx="445" cy="231" r="1.7"/><circle cx="85" cy="473" r="1.2"/><circle cx="309" cy="65" r="1.4"/><circle cx="778" cy="361" r="1.7"/><circle cx="271" cy="273" r="1.1"/><circle cx="778" cy="779" r="1.4"/><circle cx="32" cy="451" r="0.6"/><circle cx="50" cy="376" r="0.9"/><circle cx="83" cy="512" r="1.5"/><circle cx="741" cy="916" r="1.1"/><circle cx="143" cy="964" r="1.1"/><circle cx="274" cy="824" r="1.3"/><circle cx="762" cy="701" r="1.7"/><circle cx="123" cy="943" r="1.2"/><circle cx="557" cy="301" r="0.9"/><circle cx="237" cy="170" r="1.8"/><circle cx="95" cy="243" r="1.4"/><circle cx="164" cy="214" r="0.9"/><circle cx="187" cy="10" r="1.5"/><circle cx="527" cy="310" r="1.7"/><circle cx="447" cy="220" r="1.8"/><circle cx="184" cy="810" r="1.6"/><circle cx="2" cy="847" r="1.1"/><circle cx="402" cy="946" r="1.1"/><circle cx="193" cy="49" r="1.7"/><circle cx="364" cy="711" r="1.4"/><circle cx="784" cy="936" r="1.7"/><circle cx="404" cy="910" r="1.0"/><circle cx="99" cy="639" r="0.6"/><circle cx="778" cy="325" r="1.1"/><circle cx="233" cy="323" r="1.2"/><circle cx="641" cy="14" r="1.0"/><circle cx="197" cy="959" r="1.1"/><circle cx="355" cy="937" r="1.1"/><circle cx="308" cy="399" r="0.9"/><circle cx="563" cy="287" r="1.2"/><circle cx="457" cy="767" r="1.5"/><circle cx="385" cy="950" r="1.7"/><circle cx="750" cy="714" r="1.1"/><circle cx="288" cy="860" r="1.2"/><circle cx="598" cy="388" r="1.0"/><circle cx="14" cy="730" r="0.9"/><circle cx="395" cy="726" r="1.6"/><circle cx="756" cy="664" r="0.9"/><circle cx="743" cy="54" r="1.1"/><circle cx="740" cy="845" r="1.3"/><circle cx="695" cy="177" r="0.6"/><circle cx="237" cy="930" r="0.6"/><circle cx="260" cy="508" r="0.8"/><circle cx="697" cy="107" r="0.7"/><circle cx="798" cy="12" r="0.9"/><circle cx="327" cy="880" r="1.0"/><circle cx="456" cy="805" r="1.3"/><circle cx="665" cy="16" r="1.2"/><circle cx="17" cy="853" r="0.6"/><circle cx="76" cy="429" r="1.3"/><circle cx="11" cy="640" r="0.7"/><circle cx="259" cy="42" r="1.5"/><circle cx="665" cy="770" r="1.0"/><circle cx="200" cy="962" r="1.6"/><circle cx="775" cy="415" r="1.7"/><circle cx="542" cy="786" r="1.2"/><circle cx="627" cy="499" r="0.9"/><circle cx="382" cy="41" r="1.4"/><circle cx="268" cy="181" r="1.6"/><circle cx="421" cy="316" r="1.7"/><circle cx="750" cy="425" r="1.3"/><circle cx="0" cy="357" r="1.8"/><circle cx="408" cy="994" r="0.6"/><circle cx="14" cy="62" r="0.7"/><circle cx="604" cy="988" r="1.5"/><circle cx="484" cy="381" r="1.1"/><circle cx="104" cy="397" r="0.7"/><circle cx="648" cy="538" r="1.1"/><circle cx="681" cy="300" r="1.6"/><circle cx="574" cy="628" r="1.3"/><circle cx="506" cy="903" r="1.8"/><circle cx="447" cy="961" r="0.9"/><circle cx="741" cy="883" r="1.4"/><circle cx="88" cy="888" r="1.1"/><circle cx="267" cy="951" r="0.7"/><circle cx="516" cy="226" r="1.6"/><circle cx="173" cy="106" r="1.2"/><circle cx="366" cy="752" r="0.9"/><circle cx="234" cy="294" r="1.3"/><circle cx="105" cy="561" r="1.6"/><circle cx="550" cy="256" r="1.2"/><circle cx="75" cy="472" r="1.5"/><circle cx="1" cy="647" r="1.7"/><circle cx="224" cy="319" r="1.4"/><circle cx="124" cy="269" r="1.3"/><circle cx="415" cy="167" r="0.8"/><circle cx="393" cy="867" r="0.8"/><circle cx="548" cy="531" r="0.9"/><circle cx="331" cy="822" r="0.7"/></g></svg>