<svg xmlns="http://www.w3.org/2000/svg" width="800" height="1200" viewBox="0 0 800 1200"><defs></defs><rect width="800" height="1200" fill="#1a1512"/><rect x="120" y="220" width="72" height="80" fill="#2a221c"/><rect x="120" y="330" width="72" height="80" fill="#3a2e24"/><rect x="120" y="440" width="72" height="80" fill="#2a221c"/><rect x="120" y="550" width="72" height="80" fill="#3a2e24"/><rect x="120" y="660" width="72" height="80" fill="#2a221c"/><rect x="120" y="770" width="72" height="80" fill="#2a221c"/><rect x="238" y="220" width="72" height="80" fill="#3a2e24"/><rect x="238" y="330" width="72" height="80" fill="#2a221c"/><rect x="238" y="440" width="72" height="80" fill="#3a2e24"/><rect x="238" y="550" width="72" height="80" fill="#2a221c"/><rect x="238" y="660" width="72" height="80" fill="#3a2e24"/><rect x="238" y="770" width="72" height="80" fill="#3a2e24"/><rect x="356" y="220" width="72" height="80" fill="#2a221c"/><rect x="356" y="330" width="72" height="80" fill="#2a221c"/><rect x="356" y="440" width="72" height="80" fill="#3a2e24"/><rect x="356" y="550" width="72" height="80" fill="#2a221c"/><rect x="356" y="660" width="72" height="80" fill="#2a221c"/><rect x="356" y="770" width="72" height="80" fill="#2a221c"/><rect x="474" y="220" width="72" height="80" fill="#2a221c"/><rect x="474" y="330" width="72" height="80" fill="#2a221c"/><rect x="474" y="440" width="72" height="80" fill="#e8b75a"/><rect x="474" y="550" width="72" height="80" fill="#2a221c"/><rect x="474" y="660" width="72" height="80" fill="#3a2e24"/><rect x="474" y="770" width="72" height="80" fill="#2a221c"/><rect x="592" y="220" width="72" height="80" fill="#2a221c"/><rect x="592" y="330" width="72" height="80" fill="#3a2e24"/><rect x="592" y="440" width="72" height="80" fill="#3a2e24"/><rect x="592" y="550" width="72" height="80" fill="#2a221c"/><rect x="592" y="660" width="72" height="80" fill="#2a221c"/><rect x="592" y="770" width="72" height="80" fill="#3a2e24"/><rect x="486" y="446" width="22" height="40" fill="#1a1512" opacity="0.8"/><g fill="#efe7d8" opacity="0.05"><circle cx="740" cy="1138" r="1.7"/><circle cx="67" cy="710" r="1.1"/><circle cx="424" cy="156" r="0.8"/><circle cx="356" cy="265" r="1.1"/><circle cx="20" cy="103" r="1.5"/><circle cx="337" cy="615" r="1.5"/><circle cx="287" cy="69" r="1.5"/><circle cx="471" cy="789" r="1.3"/><circle cx="777" cy="435" r="1.5"/><circle cx="295" cy="686" r="1.4"/><circle cx="252" cy="103" r="1.2"/><circle cx="574" cy="709" r="1.1"/><circle cx="514" cy="218" r="0.8"/><circle cx="259" cy="979" r="0.8"/><circle cx="91" cy="118" r="0.6"/><circle cx="220" cy="687" r="1.6"/><circle cx="265" cy="444" r="0.9"/><circle cx="244" cy="933" r="1.3"/><circle cx="207" cy="129" r="1.5"/><circle cx="566" cy="994" r="0.9"/><circle cx="436" cy="1102" r="1.3"/><circle cx="756" cy="201" r="1.8"/><circle cx="45" cy="499" r="0.6"/><circle cx="648" cy="825" r="1.8"/><circle cx="644" cy="1139" r="1.2"/><circle cx="791" cy="899" r="1.0"/><circle cx="780" cy="452" r="0.8"/><circle cx="61" cy="559" r="0.8"/><circle cx="747" cy="1141" r="0.9"/><circle cx="83" cy="635" r="0.8"/><circle cx="435" cy="975" r="0.9"/><circle cx="337" cy="1081" r="1.1"/><circle cx="274" cy="1071" r="1.6"/><circle cx="716" cy="825" r="1.1"/><circle cx="554" cy="996" r="1.4"/><circle cx="191" cy="354" r="1.1"/><circle cx="617" cy="669" r="1.3"/><circle cx="661" cy="130" r="1.4"/><circle cx="266" cy="671" r="1.6"/><circle cx="199" cy="1142" r="0.7"/><circle cx="450" cy="650" r="0.9"/><circle cx="449" cy="565" r="1.1"/><circle cx="575" cy="5" r="1.1"/><circle cx="628" cy="170" r="1.6"/><circle cx="163" cy="817" r="0.8"/><circle cx="359" cy="507" r="0.7"/><circle cx="560" cy="576" r="1.4"/><circle cx="431" cy="667" r="1.2"/><circle cx="238" cy="1079" r="0.7"/><circle cx="701" cy="1036" r="1.2"/><circle cx="622" cy="808" r="1.3"/><circle cx="233" cy="384" r="1.0"/><circle cx="242" cy="1152" r="1.0"/><circle cx="310" cy="503" r="1.6"/><circle cx="382" cy="665" r="0.9"/><circle cx="222" cy="107" r="0.9"/><circle cx="211" cy="1023" r="1.2"/><circle cx="88" cy="555" r="0.7"/><circle cx="453" cy="531" r="1.6"/><circle cx="207" cy="1021" r="0.9"/><circle cx="786" cy="761" r="0.7"/><circle cx="646" cy="331" r="1.0"/><circle cx="117" cy="1005" r="0.7"/><circle cx="591" cy="475" r="1.4"/><circle cx="234" cy="94" r="1.7"/><circle cx="524" cy="204" r="1.8"/><circle cx="729" cy="219" r="0.6"/><circle cx="489" cy="167" r="1.5"/><circle cx="375" cy="851" r="1.3"/><circle cx="617" cy="986" r="1.3"/><circle cx="473" cy="392" r="0.8"/><circle cx="74" cy="1028" r="0.8"/><circle cx="341" cy="380" r="1.3"/><circle cx="427" cy="1031" r="1.1"/><circle cx="290" cy="781" r="1.5"/><circle cx="740" cy="374" r="1.7"/><circle cx="785" cy="1179" r="0.8"/><circle cx="304" cy="929" r="1.6"/><circle cx="32" cy="474" r="1.5"/><circle cx="607" cy="642" r="0.9"/><circle cx="325" cy="70" r="1.0"/><circle cx="342" cy="988" r="1.3"/><circle cx="331" cy="295" r="1.0"/><circle cx="537" cy="535" r="0.8"/><circle cx="657" cy="691" r="1.8"/><circle cx="429" cy="748" r="1.1"/><circle cx="487" cy="1103" r="1.8"/><circle cx="529" cy="516" r="0.7"/><circle cx="672" cy="470" r="1.1"/><circle cx="46" cy="41" r="1.1"/><circle cx="780" cy="889" r="1.5"/><circle cx="535" cy="327" r="0.8"/><circle cx="482" cy="76" r="1.3"/><circle cx="412" cy="651" r="0.7"/><circle cx="54" cy="568" r="0.8"/><circle cx="513" cy="371" r="1.3"/><circle cx="600" cy="728" r="1.2"/><circle cx="158" cy="417" r="1.8"/><circle cx="215" cy="341" r="1.2"/><circle cx="437" cy="949" r="1.0"/><circle cx="770" cy="27" r="1.5"/><circle cx="456" cy="1081" r="0.8"/><circle cx="551" cy="1137" r="1.4"/><circle cx="90" cy="1105" r="1.8"/><circle cx="89" cy="993" r="0.7"/><circle cx="65" cy="954" r="1.5"/><circle cx="766" cy="758" r="1.2"/><circle cx="218" cy="687" r="1.8"/><circle cx="517" cy="1051" r="0.8"/><circle cx="588" cy="878" r="0.7"/><circle cx="656" cy="211" r="0.9"/><circle cx="49" cy="795" r="0.8"/><circle cx="781" cy="0" r="1.6"/><circle cx="607" cy="683" r="1.3"/><circle cx="638" cy="764" r="0.8"/><circle cx="637" cy="425" r="1.3"/><circle cx="410" cy="1085" r="1.1"/><circle cx="683" cy="98" r="1.0"/><circle cx="536" cy="734" r="1.6"/><circle cx="166" cy="965" r="1.6"/><circle cx="114" cy="168" r="1.3"/><circle cx="780" cy="736" r="1.1"/><circle cx="405" cy="971" r="1.2"/><circle cx="429" cy="712" r="1.7"/><circle cx="640" cy="1007" r="0.9"/><circle cx="480" cy="988" r="1.5"/><circle cx="761" cy="1098" r="0.8"/><circle cx="407" cy="429" r="0.8"/><circle cx="401" cy="1180" r="1.5"/><circle cx="79" cy="297" r="1.0"/><circle cx="708" cy="551" r="0.8"/><circle cx="440" cy="297" r="0.6"/><circle cx="474" cy="1189" r="1.5"/><circle cx="589" cy="183" r="1.3"/><circle cx="510" cy="911" r="1.1"/><circle cx="43" cy="1113" r="0.9"/><circle cx="591" cy="557" r="1.5"/><circle cx="270" cy="111" r="1.1"/><circle cx="384" cy="951" r="1.1"/><circle cx="533" cy="452" r="1.5"/><circle cx="139" cy="1056" r="1.7"/><circle cx="19" cy="1030" r="1.5"/><circle cx="554" cy="127" r="1.5"/><circle cx="617" cy="752" r="1.8"/><circle cx="758" cy="760" r="1.7"/><circle cx="115" cy="358" r="1.2"/><circle cx="418" cy="1143" r="1.4"/><circle cx="497" cy="746" r="1.7"/><circle cx="320" cy="887" r="1.3"/><circle cx="322" cy="407" r="0.8"/><circle cx="9" cy="403" r="1.0"/><circle cx="65" cy="583" r="1.0"/><circle cx="741" cy="937" r="1.4"/><circle cx="678" cy="330" r="0.7"/><circle cx="488" cy="273" r="1.8"/><circle cx="340" cy="1063" r="0.9"/><circle cx="75" cy="752" r="1.4"/><circle cx="205" cy="1112" r="1.8"/><circle cx="550" cy="1178" r="1.8"/><circle cx="119" cy="876" r="1.5"/><circle cx="586" cy="407" r="1.3"/><circle cx="470" cy="1020" r="0.7"/><circle cx="300" cy="378" r="1.5"/><circle cx="93" cy="74" r="0.7"/><circle cx="93" cy="522" r="1.6"/><circle cx="284" cy="121" r="1.4"/><circle cx="266" cy="685" r="1.5"/><circle cx="365" cy="880" r="1.3"/><circle cx="681" cy="915" r="1.7"/><circle cx="597" cy="339" r="1.2"/><circle cx="618" cy="942" r="1.5"/><circle cx="674" cy="989" r="1.2"/><circle cx="512" cy="53" r="1.2"/><circle cx="581" cy="1096" r="1.6"/><circle cx="351" cy="276" r="1.7"/><circle cx="526" cy="230" r="0.6"/><circle cx="702" cy="692" r="0.7"/><circle cx="792" cy="705" r="1.5"/><circle cx="645" cy="307" r="1.2"/><circle cx="138" cy="735" r="1.1"/><circle cx="632" cy="139" r="0.8"/><circle cx="310" cy="2" r="1.1"/><circle cx="770" cy="1039" r="0.8"/><circle cx="665" cy="270" r="0.9"/><circle cx="510" cy="353" r="0.8"/><circle cx="69" cy="212" r="0.8"/><circle cx="729" cy="50" r="1.2"/><circle cx="170" cy="864" r="0.6"/><circle cx="297" cy="885" r="0.6"/><circle cx="329" cy="391" r="1.2"/><circle cx="503" cy="96" r="1.6"/><circle cx="216" cy="926" r="0.8"/><circle cx="75" cy="232" r="0.7"/><circle cx="198" cy="167" r="0.7"/><circle cx="681" cy="634" r="1.2"/><circle cx="407" cy="973" r="0.7"/><circle cx="36" cy="799" r="0.6"/><circle cx="405" cy="750" r="1.6"/><circle cx="1" cy="482" r="1.0"/><circle cx="464" cy="40" r="1.5"/><circle cx="766" cy="658" r="1.4"/><circle cx="668" cy="1013" r="1.6"/><circle cx="390" cy="105" r="1.6"/><circle cx="675" cy="841" r="1.0"/><circle cx="780" cy="747" r="1.0"/><circle cx="629" cy="269" r="0.9"/><circle cx="724" cy="66" r="1.6"/><circle cx="317" cy="686" r="1.4"/><circle cx="722" cy="264" r="0.7"/><circle cx="410" cy="269" r="1.1"/><circle cx="88" cy="108" r="1.3"/><circle cx="41" cy="320" r="1.1"/><circle cx="76" cy="967" r="1.7"/><circle cx="26" cy="968" r="0.8"/><circle cx="584" cy="73" r="1.5"/><circle cx="746" cy="311" r="0.8"/><circle cx="272" cy="1032" r="1.5"/><circle cx="125" cy="1082" r="1.5"/><circle cx="766" cy="1167" r="0.8"/><circle cx="582" cy="29" r="0.8"/><circle cx="429" cy="280" r="0.9"/><circle cx="286" cy="551" r="1.7"/><circle cx="465" cy="667" r="1.5"/><circle cx="151" cy="964" r="1.5"/><circle cx="651" cy="540" r="1.3"/><circle cx="60" cy="550" r="1.4"/><circle cx="760" cy="1075" r="1.0"/><circle cx="605" cy="1027" r="1.8"/><circle cx="544" cy="395" r="1.6"/><circle cx="13" cy="681" r="1.1"/><circle cx="706" cy="745" r="0.8"/><circle cx="132" cy="43" r="1.5"/><circle cx="627" cy="448" r="0.9"/><circle cx="446" cy="235" r="1.2"/><circle cx="275" cy="383" r="1.4"/><circle cx="199" cy="398" r="1.3"/><circle cx="753" cy="180" r="1.0"/><circle cx="218" cy="378" r="1.2"/><circle cx="656" cy="217" r="1.5"/><circle cx="346" cy="686" r="1.2"/><circle cx="482" cy="215" r="1.3"/><circle cx="322" cy="941" r="1.3"/><circle cx="326" cy="1184" r="0.8"/><circle cx="11" cy="148" r="1.4"/><circle cx="74" cy="882" r="0.7"/><circle cx="238" cy="747" r="0.6"/><circle cx="346" cy="1199" r="1.5"/><circle cx="311" cy="1090" r="1.3"/><circle cx="649" cy="413" r="1.1"/><circle cx="560" cy="913" r="1.4"/><circle cx="120" cy="506" r="1.0"/><circle cx="185" cy="140" r="1.5"/><circle cx="113" cy="425" r="0.6"/><circle cx="564" cy="750" r="0.7"/><circle cx="760" cy="1194" r="1.5"/><circle cx="645" cy="844" r="0.6"/><circle cx="218" cy="284" r="0.6"/><circle cx="511" cy="709" r="1.0"/><circle cx="599" cy="281" r="0.9"/><circle cx="92" cy="282" r="1.6"/><circle cx="392" cy="884" r="1.6"/><circle cx="533" cy="433" r="1.8"/><circle cx="64" cy="496" r="1.7"/><circle cx="546" cy="424" r="1.6"/><circle cx="606" cy="868" r="0.9"/><circle cx="544" cy="787" r="1.6"/><circle cx="410" cy="1115" r="1.5"/><circle cx="168" cy="694" r="0.8"/><circle cx="494" cy="391" r="1.8"/><circle cx="274" cy="948" r="1.6"/><circle cx="299" cy="707" r="0.9"/><circle cx="300" cy="527" r="1.5"/><circle cx="407" cy="193" r="1.4"/><circle cx="413" cy="630" r="1.1"/><circle cx="693" cy="785" r="1.4"/><circle cx="401" cy="482" r="1.1"/><circle cx="543" cy="525" r="0.7"/><circle cx="177" cy="64" r="0.7"/><circle cx="287" cy="453" r="1.1"/><circle cx="161" cy="280" r="1.1"/><circle cx="232" cy="313" r="1.2"/><circle cx="611" cy="73" r="0.6"/><circle cx="358" cy="1073" r="1.4"/><circle cx="292" cy="1167" r="1.4"/><circle cx="660" cy="1011" r="0.6"/><circle cx="156" cy="949" r="1.1"/><circle cx="720" cy="85" r="1.7"/><circle cx="496" cy="494" r="1.6"/><circle cx="428" cy="551" r="0.8"/><circle cx="627" cy="175" r="1.0"/><circle cx="70" cy="19" r="1.0"/><circle cx="35" cy="563" r="1.0"/><circle cx="14" cy="557" r="0.9"/><circle cx="185" cy="649" r="1.0"/><circle cx="44" cy="1117" r="1.8"/><circle cx="190" cy="791" r="1.3"/><circle cx="199" cy="646" r="0.9"/><circle cx="220" cy="544" r="0.7"/><circle cx="184" cy="1181" r="1.5"/><circle cx="265" cy="1196" r="1.0"/></g><text x="400" y="118" text-anchor="middle" font-family="Georgia, 'Times New Roman', serif" font-size="30" letter-spacing="9" fill="#c8a25c">VICTOR LANCTÔT</text><text x="400" y="989" text-anchor="middle" font-family="Georgia, 'Times New Roman', serif" font-size="84" fill="#efe7d8">Nuit blanche</text><text x="400" y="1080" text-anchor="middle" font-family="Georgia, 'Times New Roman', serif" font-size="84" fill="#efe7d8">à Hochelaga</text></svg>